<?xml version="1.0" encoding="UTF-8" standalone="no"?>
<!-- Created with Inkscape (http://www.inkscape.org/) -->

<svg
   xmlns:dc="http://purl.org/dc/elements/1.1/"
   xmlns:cc="http://creativecommons.org/ns#"
   xmlns:rdf="http://www.w3.org/1999/02/22-rdf-syntax-ns#"
   xmlns:svg="http://www.w3.org/2000/svg"
   xmlns="http://www.w3.org/2000/svg"
   xmlns:sodipodi="http://sodipodi.sourceforge.net/DTD/sodipodi-0.dtd"
   xmlns:inkscape="http://www.inkscape.org/namespaces/inkscape"
   width="18.917707mm"
   height="24.63932mm"
   viewBox="0 0 18.917708 24.63932"
   version="1.1"
   id="svg8"
   inkscape:version="0.91 r13725"
   sodipodi:docname="bulker_bug.svg">
  <defs
     id="defs2" />
  <sodipodi:namedview
     id="base"
     pagecolor="#ffffff"
     bordercolor="#666666"
     borderopacity="1.0"
     inkscape:pageopacity="0.0"
     inkscape:pageshadow="2"
     inkscape:zoom="0.7"
     inkscape:cx="598.31831"
     inkscape:cy="292.51891"
     inkscape:document-units="mm"
     inkscape:current-layer="layer1"
     showgrid="false"
     fit-margin-top="0"
     fit-margin-left="0"
     fit-margin-right="0"
     fit-margin-bottom="0" />
  <metadata
     id="metadata5">
    <rdf:RDF>
      <cc:Work
         rdf:about="">
        <dc:format>image/svg+xml</dc:format>
        <dc:type
           rdf:resource="http://purl.org/dc/dcmitype/StillImage" />
        <dc:title></dc:title>
      </cc:Work>
    </rdf:RDF>
  </metadata>
  <g
     inkscape:label="Layer 1"
     inkscape:groupmode="layer"
     id="layer1"
     transform="translate(-23.803053,-131.97796)">
    <g
       style="fill:#666666"
       id="g835"
       transform="matrix(0.16536458,0,0,0.16536458,20.032741,131.06845)">
      <g
         id="g821"
         style="fill:#666666">
        <polygon
           id="polygon815"
           points="114.1,50.9 114.1,76 106.8,73.7 80,65.5 53.2,73.7 45.9,76 45.9,50.9 70.1,50.9 70.1,38.9 89.9,38.9 89.9,50.9 "
           style="fill:#666666" />
        <path
           id="path817"
           d="M 66.4,14.4 C 62.9,14.4 60,11.5 60,8 l 0,-2.5 -7.3,0 0,2.5 c 0,7.6 6.1,13.7 13.7,13.7 5.4,0 9.8,4.4 9.8,9.9 l 7.3,0 c 0,-9.5 -7.7,-17.2 -17.1,-17.2 z"
           inkscape:connector-curvature="0"
           style="fill:#000000" />
        <path
           id="path819"
           d="M 137.2,90.3 114.1,83.2 106.8,81 80,72.8 53.2,81 l -7.3,2.2 -23.1,7.1 3.5,7.1 c 9.1,18.6 13.7,31.2 14.2,49.8 l -16.8,0 0,7.3 109.7,0 0,-7.3 -13.9,0 c 0.5,-18.6 5.1,-31.2 14.2,-49.8 z m -87.3,24.5 c -2.3,0.8 -5.4,-1.6 -6.8,-5.5 -1.4,-3.9 -0.7,-7.7 1.6,-8.5 2.3,-0.8 5.4,1.6 6.8,5.5 1.5,3.9 0.7,7.7 -1.6,8.5 z m 67,-5.5 c -1.4,3.9 -4.5,6.3 -6.8,5.5 -2.3,-0.8 -3,-4.6 -1.6,-8.5 1.4,-3.9 4.5,-6.3 6.8,-5.5 2.3,0.9 3,4.7 1.6,8.5 z"
           inkscape:connector-curvature="0"
           style="fill:#800000" />
      </g>
    </g>
  </g>
</svg>
