<?xml version="1.0" encoding="UTF-8" standalone="no"?>
<!-- Created with Inkscape (http://www.inkscape.org/) -->

<svg
   xmlns:dc="http://purl.org/dc/elements/1.1/"
   xmlns:cc="http://creativecommons.org/ns#"
   xmlns:rdf="http://www.w3.org/1999/02/22-rdf-syntax-ns#"
   xmlns:svg="http://www.w3.org/2000/svg"
   xmlns="http://www.w3.org/2000/svg"
   xmlns:sodipodi="http://sodipodi.sourceforge.net/DTD/sodipodi-0.dtd"
   xmlns:inkscape="http://www.inkscape.org/namespaces/inkscape"
   width="96.094688mm"
   height="24.869278mm"
   viewBox="0 0 96.094689 24.869278"
   version="1.1"
   id="svg8"
   inkscape:version="0.91 r13725"
   sodipodi:docname="bulker_logo_grey.svg">
  <defs
     id="defs2" />
  <sodipodi:namedview
     id="base"
     pagecolor="#ffffff"
     bordercolor="#666666"
     borderopacity="1.0"
     inkscape:pageopacity="0.0"
     inkscape:pageshadow="2"
     inkscape:zoom="0.7"
     inkscape:cx="598.31831"
     inkscape:cy="292.51891"
     inkscape:document-units="mm"
     inkscape:current-layer="layer1"
     showgrid="false"
     fit-margin-top="0"
     fit-margin-left="0"
     fit-margin-right="0"
     fit-margin-bottom="0" />
  <metadata
     id="metadata5">
    <rdf:RDF>
      <cc:Work
         rdf:about="">
        <dc:format>image/svg+xml</dc:format>
        <dc:type
           rdf:resource="http://purl.org/dc/dcmitype/StillImage" />
        <dc:title></dc:title>
      </cc:Work>
    </rdf:RDF>
  </metadata>
  <g
     inkscape:label="Layer 1"
     inkscape:groupmode="layer"
     id="layer1"
     transform="translate(-23.803053,-131.97796)">
    <g
       style="fill:#808080"
       id="g835"
       transform="matrix(0.16536458,0,0,0.16536458,20.032741,131.06845)">
      <g
         id="g821"
         style="fill:#808080">
        <polygon
           id="polygon815"
           points="70.1,38.9 89.9,38.9 89.9,50.9 114.1,50.9 114.1,76 106.8,73.7 80,65.5 53.2,73.7 45.9,76 45.9,50.9 70.1,50.9 "
           style="fill:#808080" />
        <path
           id="path817"
           d="M 66.4,14.4 C 62.9,14.4 60,11.5 60,8 l 0,-2.5 -7.3,0 0,2.5 c 0,7.6 6.1,13.7 13.7,13.7 5.4,0 9.8,4.4 9.8,9.9 l 7.3,0 c 0,-9.5 -7.7,-17.2 -17.1,-17.2 z"
           inkscape:connector-curvature="0"
           style="fill:#808080" />
        <path
           id="path819"
           d="M 137.2,90.3 114.1,83.2 106.8,81 80,72.8 53.2,81 l -7.3,2.2 -23.1,7.1 3.5,7.1 c 9.1,18.6 13.7,31.2 14.2,49.8 l -16.8,0 0,7.3 109.7,0 0,-7.3 -13.9,0 c 0.5,-18.6 5.1,-31.2 14.2,-49.8 z m -87.3,24.5 c -2.3,0.8 -5.4,-1.6 -6.8,-5.5 -1.4,-3.9 -0.7,-7.7 1.6,-8.5 2.3,-0.8 5.4,1.6 6.8,5.5 1.5,3.9 0.7,7.7 -1.6,8.5 z m 67,-5.5 c -1.4,3.9 -4.5,6.3 -6.8,5.5 -2.3,-0.8 -3,-4.6 -1.6,-8.5 1.4,-3.9 4.5,-6.3 6.8,-5.5 2.3,0.9 3,4.7 1.6,8.5 z"
           inkscape:connector-curvature="0"
           style="fill:#808080" />
      </g>
    </g>
    <g
       style="color:#000000;font-style:normal;font-variant:normal;font-weight:bold;font-stretch:normal;font-size:26.28804398px;line-height:0%;font-family:'Groovy Fast';-inkscape-font-specification:'Groovy Fast Bold';text-indent:0;text-align:center;text-decoration:none;text-decoration-line:none;text-decoration-style:solid;text-decoration-color:#000000;letter-spacing:0px;word-spacing:0px;text-transform:none;direction:ltr;writing-mode:lr-tb;baseline-shift:baseline;text-anchor:middle;white-space:normal;clip-rule:nonzero;display:inline;overflow:visible;visibility:visible;opacity:1;isolation:auto;mix-blend-mode:normal;color-interpolation:sRGB;color-interpolation-filters:linearRGB;solid-color:#000000;solid-opacity:1;fill:#808080;fill-opacity:1;fill-rule:nonzero;stroke:none;stroke-width:2.62880445px;stroke-linecap:butt;stroke-linejoin:miter;stroke-miterlimit:4;stroke-dasharray:none;stroke-dashoffset:0;stroke-opacity:1;marker:none;color-rendering:auto;image-rendering:auto;shape-rendering:auto;text-rendering:auto;enable-background:accumulate"
       id="text839">
      <path
         d="m 52.380599,156.59052 -5.36543,0 0,-18.80468 q 3.427201,-0.16687 4.941844,-0.16687 2.785403,0 4.312882,1.20658 1.527479,1.19374 1.527479,3.4272 0,1.30927 -0.975533,2.38749 -0.975533,1.07822 -2.156441,1.34777 2.233457,0.53911 3.247498,1.7842 1.026876,1.24509 1.026876,3.38869 0,2.47734 -1.822706,3.95348 -1.80987,1.47614 -4.736469,1.47614 z m -2.798239,-16.75093 0,5.40394 q 0.808666,0.077 2.00241,0.077 3.645412,0 3.645412,-2.9651 0,-2.6057 -3.350185,-2.6057 -1.283596,0 -2.297637,0.0898 z m 0,7.39351 0,7.1753 q 1.322104,0.12836 2.028082,0.12836 2.41316,0 3.517053,-0.89852 1.116728,-0.91135 1.116728,-2.88809 0,-1.83554 -1.065385,-2.70838 -1.052548,-0.87285 -3.529888,-0.87285 l -2.06659,0.0642 z"
         style="font-style:normal;font-variant:normal;font-weight:normal;font-stretch:normal;font-family:'Trebuchet MS';-inkscape-font-specification:'Trebuchet MS';fill:#808080;stroke-width:2.62880445px"
         id="path4141" />
      <path
         d="m 64.022814,142.8432 0,8.76696 q 0,3.18332 2.759731,3.18332 1.20658,0 2.207785,-0.69314 1.001205,-0.69314 1.322104,-1.6045 l 0,-9.65264 2.438832,0 0,13.74732 -2.438832,0 0,-1.89973 q -0.410751,0.80867 -1.655839,1.48897 -1.232252,0.66747 -2.41316,0.66747 -2.259129,0 -3.465709,-1.29643 -1.193744,-1.29643 -1.193744,-3.68392 l 0,-9.02368 2.438832,0 z"
         style="font-style:normal;font-variant:normal;font-weight:normal;font-stretch:normal;font-family:'Trebuchet MS';-inkscape-font-specification:'Trebuchet MS';fill:#808080;stroke-width:2.62880445px"
         id="path4143" />
      <path
         d="m 76.281156,152.70122 0,-15.493 2.438832,0 0,15.08225 q 0,1.10389 0.628962,1.74569 0.641798,0.62896 1.668675,0.62896 l 0,2.18211 q -4.736469,0 -4.736469,-4.14601 z"
         style="font-style:normal;font-variant:normal;font-weight:normal;font-stretch:normal;font-family:'Trebuchet MS';-inkscape-font-specification:'Trebuchet MS';fill:#808080;stroke-width:2.62880445px"
         id="path4145" />
      <path
         d="m 92.724018,156.59052 -4.312882,-6.88008 -2.130769,2.19495 0,4.68513 -2.438832,0 0,-19.3823 2.438832,0 0,12.02729 5.262743,-6.39231 2.849583,0 -4.402734,5.22424 5.378267,8.52308 -2.644208,0 z"
         style="font-style:normal;font-variant:normal;font-weight:normal;font-stretch:normal;font-family:'Trebuchet MS';-inkscape-font-specification:'Trebuchet MS';fill:#808080;stroke-width:2.62880445px"
         id="path4147" />
      <path
         d="m 108.66628,149.95432 -9.909359,0 q 0,2.41316 1.322099,3.7096 1.16808,1.12956 3.00362,1.12956 2.09226,0 3.49138,-1.21942 l 1.02688,1.75853 q -0.56479,0.56478 -1.73286,0.97553 -1.4633,0.53911 -3.26033,0.53911 -2.59286,0 -4.402735,-1.75852 -2.015246,-1.93823 -2.015246,-5.2114 0,-3.40153 2.06659,-5.45528 1.848381,-1.83555 4.377061,-1.83555 2.93944,0 4.60811,1.65584 1.61733,1.59166 1.61733,4.22303 0,0.80867 -0.19254,1.48897 z m -5.91738,-5.31408 q -1.63016,0 -2.73405,1.05255 -1.052553,1.0012 -1.193749,2.49017 l 7.611719,0 q 0,-1.47613 -0.92418,-2.4645 -1.01405,-1.07822 -2.75974,-1.07822 z"
         style="font-style:normal;font-variant:normal;font-weight:normal;font-stretch:normal;font-family:'Trebuchet MS';-inkscape-font-specification:'Trebuchet MS';fill:#808080;stroke-width:2.62880445px"
         id="path4149" />
      <path
         d="m 118.8837,145.19218 q -0.79583,-0.55194 -1.60449,-0.55194 -1.29643,0 -2.27197,1.19374 -0.96269,1.19375 -0.96269,2.87526 l 0,7.88128 -2.43884,0 0,-13.74732 2.43884,0 0,2.19495 q 1.33494,-2.45167 3.96631,-2.45167 0.65463,0 1.88688,0.23105 l -1.01404,2.37465 z"
         style="font-style:normal;font-variant:normal;font-weight:normal;font-stretch:normal;font-family:'Trebuchet MS';-inkscape-font-specification:'Trebuchet MS';fill:#808080;stroke-width:2.62880445px"
         id="path4151" />
    </g>
  </g>
</svg>
